<svg width="50" height="30" viewBox="0 0 50 30" fill="none" xmlns="http://www.w3.org/2000/svg">
<path fill-rule="evenodd" clip-rule="evenodd" d="M24.1988 24.652C24.1504 26.9926 22.2223 28.8556 19.8813 28.8236C17.5404 28.7915 15.664 26.8763 15.6798 24.5352C15.6956 22.1941 17.5976 20.3045 19.9388 20.304C21.0803 20.3156 22.1704 20.7802 22.9693 21.5956C23.7683 22.411 24.2105 23.5104 24.1988 24.652V24.652Z" stroke="#E2195B" stroke-width="2" stroke-linecap="round" stroke-linejoin="round"/>
<path fill-rule="evenodd" clip-rule="evenodd" d="M44.4917 24.652C44.4434 26.9926 42.5152 28.8556 40.1743 28.8236C37.8333 28.7915 35.957 26.8763 35.9728 24.5352C35.9885 22.1941 37.8906 20.3045 40.2317 20.304C41.3733 20.3156 42.4634 20.7802 43.2623 21.5956C44.0612 22.411 44.5035 23.5104 44.4917 24.652V24.652Z" stroke="#E2195B" stroke-width="2" stroke-linecap="round" stroke-linejoin="round"/>
<path d="M35.468 25.652C36.0203 25.652 36.468 25.2043 36.468 24.652C36.468 24.0997 36.0203 23.652 35.468 23.652V25.652ZM24.2 23.652C23.6477 23.652 23.2 24.0997 23.2 24.652C23.2 25.2043 23.6477 25.652 24.2 25.652V23.652ZM34.476 24.652C34.476 25.2043 34.9237 25.652 35.476 25.652C36.0283 25.652 36.476 25.2043 36.476 24.652H34.476ZM36.476 14.118C36.476 13.5657 36.0283 13.118 35.476 13.118C34.9237 13.118 34.476 13.5657 34.476 14.118H36.476ZM35.476 23.652C34.9237 23.652 34.476 24.0997 34.476 24.652C34.476 25.2043 34.9237 25.652 35.476 25.652V23.652ZM35.978 25.652C36.5303 25.652 36.978 25.2043 36.978 24.652C36.978 24.0997 36.5303 23.652 35.978 23.652V25.652ZM44.4769 23.6522C43.9247 23.6639 43.4865 24.121 43.4982 24.6731C43.5099 25.2253 43.967 25.6635 44.5191 25.6518L44.4769 23.6522ZM49 19.97L49.9998 19.952C49.9989 19.8991 49.9937 19.8464 49.9845 19.7944L49 19.97ZM48.9405 13.9424C48.8435 13.3987 48.3241 13.0365 47.7804 13.1335C47.2367 13.2305 46.8745 13.7499 46.9715 14.2936L48.9405 13.9424ZM35.468 3.754C34.9157 3.754 34.468 4.20171 34.468 4.754C34.468 5.30628 34.9157 5.754 35.468 5.754V3.754ZM42.61 4.754V5.75402L42.6163 5.75398L42.61 4.754ZM45.8692 6.12773L45.1489 6.82148L45.8692 6.12773ZM47.12 9.436L46.121 9.39229C46.1177 9.46577 46.1226 9.53937 46.1356 9.61178L47.12 9.436ZM46.9716 14.2938C47.0686 14.8375 47.5881 15.1995 48.1318 15.1024C48.6755 15.0054 49.0375 14.4859 48.9404 13.9422L46.9716 14.2938ZM36.468 4.754C36.468 4.20171 36.0203 3.754 35.468 3.754C34.9157 3.754 34.468 4.20171 34.468 4.754H36.468ZM34.468 14.118C34.468 14.6703 34.9157 15.118 35.468 15.118C36.0203 15.118 36.468 14.6703 36.468 14.118H34.468ZM34.468 4.754C34.468 5.30628 34.9157 5.754 35.468 5.754C36.0203 5.754 36.468 5.30628 36.468 4.754H34.468ZM35.468 3.154L34.468 3.14744V3.154H35.468ZM33.34 1L33.3456 0H33.34V1ZM14.17 1V-1.0848e-05L14.1653 1.0848e-05L14.17 1ZM12.6597 1.63386L11.9493 0.930061V0.930061L12.6597 1.63386ZM12.04 3.15H13.04L13.04 3.14532L12.04 3.15ZM12.04 22.5L13.04 22.5047V22.5H12.04ZM12.6597 24.0161L11.9493 24.7199L12.6597 24.0161ZM14.17 24.65L14.1653 25.65H14.17V24.65ZM15.672 25.65C16.2243 25.65 16.672 25.2023 16.672 24.65C16.672 24.0977 16.2243 23.65 15.672 23.65V25.65ZM35.472 13.116C34.9197 13.116 34.472 13.5637 34.472 14.116C34.472 14.6683 34.9197 15.116 35.472 15.116V13.116ZM47.96 15.116C48.5123 15.116 48.96 14.6683 48.96 14.116C48.96 13.5637 48.5123 13.116 47.96 13.116V15.116ZM1 4C0.447715 4 0 4.44772 0 5C0 5.55228 0.447715 6 1 6V4ZM7.26 6C7.81228 6 8.26 5.55228 8.26 5C8.26 4.44772 7.81228 4 7.26 4V6ZM3 10C2.44772 10 2 10.4477 2 11C2 11.5523 2.44772 12 3 12V10ZM7 12C7.55228 12 8 11.5523 8 11C8 10.4477 7.55228 10 7 10V12ZM4.22 16C3.66772 16 3.22 16.4477 3.22 17C3.22 17.5523 3.66772 18 4.22 18V16ZM7 18C7.55228 18 8 17.5523 8 17C8 16.4477 7.55228 16 7 16V18ZM35.468 23.652H24.2V25.652H35.468V23.652ZM36.476 24.652V14.118H34.476V24.652H36.476ZM35.476 25.652H35.978V23.652H35.476V25.652ZM44.5191 25.6518C47.6045 25.5865 50.0555 23.0375 49.9998 19.952L48.0002 19.9881C48.036 21.9716 46.4603 23.6103 44.4769 23.6522L44.5191 25.6518ZM49.9845 19.7944L48.9405 13.9424L46.9715 14.2936L48.0155 20.1456L49.9845 19.7944ZM35.468 5.754H42.61V3.754H35.468V5.754ZM42.6163 5.75398C43.5711 5.74796 44.4865 6.13382 45.1489 6.82148L46.5894 5.43398C45.5469 4.35179 44.1063 3.74454 42.6037 3.75402L42.6163 5.75398ZM45.1489 6.82148C45.8113 7.50914 46.1627 8.4384 46.121 9.39229L48.119 9.47971C48.1847 7.97855 47.6318 6.51616 46.5894 5.43398L45.1489 6.82148ZM46.1356 9.61178L46.9716 14.2938L48.9404 13.9422L48.1044 9.26022L46.1356 9.61178ZM34.468 4.754V14.118H36.468V4.754H34.468ZM36.468 4.754V3.154H34.468V4.754H36.468ZM36.468 3.16056C36.4734 2.32727 36.1474 1.52598 35.5618 0.933173L34.139 2.33877C34.3517 2.554 34.47 2.84491 34.468 3.14744L36.468 3.16056ZM35.5618 0.933173C34.9762 0.340369 34.1789 0.00467044 33.3456 1.56164e-05L33.3344 1.99998C33.6369 2.00167 33.9264 2.12355 34.139 2.33877L35.5618 0.933173ZM33.34 0H14.17V2H33.34V0ZM14.1653 1.0848e-05C13.3326 0.00389326 12.5354 0.338443 11.9493 0.930061L13.3701 2.33765C13.5829 2.12286 13.8723 2.0014 14.1747 1.99999L14.1653 1.0848e-05ZM11.9493 0.930061C11.3632 1.52168 11.0361 2.3219 11.04 3.15468L13.04 3.14532C13.0386 2.84297 13.1573 2.55244 13.3701 2.33765L11.9493 0.930061ZM11.04 3.15V22.5H13.04V3.15H11.04ZM11.04 22.4953C11.0361 23.3281 11.3632 24.1283 11.9493 24.7199L13.3701 23.3123C13.1573 23.0976 13.0386 22.807 13.04 22.5047L11.04 22.4953ZM11.9493 24.7199C12.5354 25.3116 13.3326 25.6461 14.1653 25.65L14.1747 23.65C13.8723 23.6486 13.5829 23.5271 13.3701 23.3123L11.9493 24.7199ZM14.17 25.65H15.672V23.65H14.17V25.65ZM35.472 15.116H47.96V13.116H35.472V15.116ZM1 6H7.26V4H1V6ZM3 12H7V10H3V12ZM4.22 18H7V16H4.22V18Z" fill="#E2195B"/>
</svg>
