<svg width="19" height="18" viewBox="0 0 19 18" fill="none" xmlns="http://www.w3.org/2000/svg">
<path fill-rule="evenodd" clip-rule="evenodd" d="M7.95433 15.635L15.9837 8.03297C17.3183 6.76936 17.2151 4.5325 15.756 3.09813C14.3313 1.69754 12.1584 1.6013 10.9025 2.88315L3.09214 10.8552C3.09214 10.8552 4.82231 11.5436 6.03821 12.7389C7.25412 13.9342 7.95433 15.635 7.95433 15.635Z" fill="#F2F3F5"/>
<path d="M7.95433 15.635L7.26479 15.8547C7.36428 16.0964 7.57416 16.2845 7.82307 16.3551C8.07199 16.4257 8.32644 16.3693 8.49993 16.205L7.95433 15.635ZM3.09214 10.8552L2.52948 10.302C2.35985 10.4752 2.30032 10.733 2.37165 10.9855C2.44297 11.2381 2.63527 11.4504 2.88146 11.5483L3.09214 10.8552ZM15.9837 8.03297L15.4381 7.46297L15.9837 8.03297ZM3.65479 11.4085L11.4652 3.43639L10.3399 2.32992L2.52948 10.302L3.65479 11.4085ZM15.4381 7.46297L7.40873 15.065L8.49993 16.205L16.5293 8.60298L15.4381 7.46297ZM3.09214 10.8552C2.88146 11.5483 2.88133 11.5483 2.88121 11.5482C2.88118 11.5482 2.88107 11.5482 2.881 11.5481C2.88088 11.5481 2.88078 11.5481 2.8807 11.548C2.88055 11.548 2.8805 11.5479 2.88056 11.548C2.88067 11.548 2.88118 11.5482 2.8821 11.5486C2.88393 11.5493 2.88735 11.5507 2.8923 11.5528C2.90221 11.5568 2.9182 11.5635 2.93974 11.5726C2.98285 11.591 3.04801 11.6194 3.13093 11.6575C3.29714 11.7338 3.53271 11.8481 3.80385 11.9972C4.35426 12.3 5.01438 12.7263 5.54227 13.2452L6.53416 12.2325C5.84614 11.5562 5.03322 11.0407 4.41458 10.7005C4.10119 10.5281 3.82822 10.3956 3.63202 10.3055C3.53374 10.2603 3.45423 10.2256 3.39797 10.2017C3.36983 10.1897 3.34746 10.1804 3.33143 10.1738C3.32341 10.1705 3.31697 10.1679 3.31218 10.1659C3.30978 10.165 3.3078 10.1642 3.30623 10.1635C3.30545 10.1632 3.30478 10.1629 3.30421 10.1627C3.30392 10.1626 3.30366 10.1625 3.30343 10.1624C3.30331 10.1624 3.30316 10.1623 3.3031 10.1623C3.30295 10.1622 3.30281 10.1622 3.09214 10.8552ZM5.54227 13.2452C6.06975 13.7638 6.50262 14.4116 6.80974 14.9513C6.96109 15.2172 7.07703 15.4481 7.15441 15.611C7.19301 15.6922 7.22179 15.756 7.24035 15.7982C7.24963 15.8192 7.25633 15.8348 7.26043 15.8444C7.26247 15.8492 7.26386 15.8525 7.26459 15.8543C7.26496 15.8552 7.26515 15.8556 7.26519 15.8557C7.2652 15.8557 7.26518 15.8557 7.26511 15.8555C7.26508 15.8554 7.26503 15.8553 7.26498 15.8552C7.26495 15.8551 7.2649 15.855 7.26489 15.855C7.26484 15.8549 7.26479 15.8547 7.95433 15.635C8.64388 15.4153 8.64382 15.4152 8.64376 15.415C8.64373 15.415 8.64367 15.4148 8.64362 15.4147C8.64352 15.4145 8.64341 15.4142 8.6433 15.4139C8.64306 15.4133 8.64278 15.4127 8.64245 15.4119C8.6418 15.4103 8.64098 15.4083 8.63998 15.4059C8.63799 15.4012 8.6353 15.3948 8.63192 15.3868C8.62516 15.371 8.61563 15.3489 8.60339 15.3211C8.57891 15.2655 8.54348 15.1871 8.49744 15.0902C8.40553 14.8968 8.27043 14.6278 8.09473 14.3191C7.74777 13.7095 7.22258 12.9093 6.53416 12.2325L5.54227 13.2452ZM16.5293 8.60298C18.155 7.06375 18.0293 4.339 16.252 2.59179L15.2601 3.60448C16.4009 4.72599 16.4816 6.47496 15.4381 7.46297L16.5293 8.60298ZM11.4652 3.43639C12.4471 2.43412 14.1461 2.50938 15.2601 3.60448L16.252 2.59179C14.5165 0.885714 11.8696 0.768472 10.3399 2.32992L11.4652 3.43639Z" fill="#505567"/>
<path d="M2.24904 17.1086L7.95085 15.641C7.95085 15.641 7.2522 13.9395 6.0374 12.7431C4.8226 11.5467 3.09306 10.8568 3.09306 10.8568L1.59302 16.4469C1.4918 16.8241 1.87045 17.2061 2.24904 17.1086Z" fill="white"/>
<path d="M7.95085 15.641L8.20889 16.3688C8.40205 16.319 8.55766 16.1895 8.63929 16.0105C8.72091 15.8315 8.72138 15.6187 8.6406 15.4219L7.95085 15.641ZM2.24904 17.1086L2.50709 17.8364L2.50709 17.8364L2.24904 17.1086ZM1.59302 16.4469L0.867044 16.182L0.867044 16.182L1.59302 16.4469ZM3.09306 10.8568L3.30437 10.1639C3.10954 10.0862 2.89984 10.0879 2.7232 10.1685C2.54655 10.2492 2.41805 10.402 2.36708 10.592L3.09306 10.8568ZM6.0374 12.7431L5.54098 13.249L6.0374 12.7431ZM7.6928 14.9132L1.991 16.3809L2.50709 17.8364L8.20889 16.3688L7.6928 14.9132ZM2.319 16.7117L3.81904 11.1216L2.36708 10.592L0.867044 16.182L2.319 16.7117ZM3.09306 10.8568C2.88174 11.5497 2.88161 11.5496 2.88149 11.5496C2.88146 11.5496 2.88135 11.5495 2.88128 11.5495C2.88116 11.5495 2.88106 11.5494 2.88098 11.5494C2.88083 11.5493 2.88078 11.5493 2.88084 11.5493C2.88095 11.5494 2.88146 11.5496 2.88238 11.55C2.88421 11.5507 2.88763 11.5521 2.89258 11.5541C2.90248 11.5582 2.91846 11.5649 2.93999 11.5741C2.98309 11.5925 3.04822 11.6209 3.13111 11.6591C3.29725 11.7355 3.53271 11.85 3.80371 11.9994C4.35385 12.3027 5.01358 12.7296 5.54098 13.249L6.53381 12.2372C5.84641 11.5602 5.03397 11.044 4.41564 10.7032C4.10241 10.5305 3.82956 10.3978 3.63344 10.3075C3.53521 10.2623 3.45573 10.2275 3.3995 10.2035C3.37136 10.1915 3.349 10.1822 3.33297 10.1756C3.32496 10.1722 3.31852 10.1696 3.31373 10.1677C3.31134 10.1667 3.30935 10.1659 3.30779 10.1653C3.30701 10.165 3.30633 10.1647 3.30576 10.1645C3.30548 10.1644 3.30522 10.1642 3.30499 10.1642C3.30487 10.1641 3.30472 10.164 3.30466 10.164C3.30451 10.164 3.30437 10.1639 3.09306 10.8568ZM5.54098 13.249C6.06799 13.768 6.50026 14.4163 6.80689 14.9562C6.95799 15.2222 7.07371 15.4533 7.15094 15.6162C7.18948 15.6975 7.21819 15.7613 7.23672 15.8035C7.24597 15.8245 7.25266 15.8401 7.25675 15.8498C7.25879 15.8546 7.26018 15.8579 7.2609 15.8596C7.26127 15.8605 7.26147 15.861 7.2615 15.861C7.26151 15.8611 7.26149 15.861 7.26142 15.8609C7.26139 15.8608 7.26135 15.8607 7.26129 15.8605C7.26126 15.8605 7.26122 15.8604 7.2612 15.8603C7.26115 15.8602 7.2611 15.8601 7.95085 15.641C8.6406 15.4219 8.64054 15.4218 8.64047 15.4216C8.64045 15.4216 8.64039 15.4214 8.64034 15.4213C8.64024 15.421 8.64013 15.4208 8.64001 15.4205C8.63978 15.4199 8.6395 15.4192 8.63917 15.4185C8.63852 15.4169 8.6377 15.4149 8.63671 15.4125C8.63472 15.4078 8.63203 15.4014 8.62866 15.3934C8.62191 15.3775 8.61241 15.3554 8.60019 15.3276C8.57576 15.272 8.54041 15.1936 8.49446 15.0967C8.40273 14.9032 8.26787 14.6341 8.09246 14.3252C7.74606 13.7153 7.22161 12.9146 6.53381 12.2372L5.54098 13.249ZM1.991 16.3809C2.18029 16.3321 2.36962 16.5231 2.319 16.7117L0.867044 16.182C0.61398 17.1251 1.56061 18.08 2.50709 17.8364L1.991 16.3809Z" fill="#505567"/>
</svg>
