<svg width="18" height="18" viewBox="0 0 18 18" fill="none" xmlns="http://www.w3.org/2000/svg">
<path d="M1 4.83313H17.0011" stroke="#505567" stroke-width="1.5" stroke-linecap="round"/>
<path d="M14.7477 4.83313H3.24529L3.16298 6.32142C3.00526 9.17294 3.13926 12.0331 3.56291 14.8574C3.74765 16.089 4.80563 17.0001 6.05101 17.0001H11.942C13.1874 17.0001 14.2453 16.089 14.4301 14.8574C14.8537 12.0331 14.9877 9.17294 14.83 6.32142L14.7477 4.83313Z" fill="#F2F3F5"/>
<path d="M3.24529 4.83313V4.08313C2.84717 4.08313 2.51842 4.3942 2.49644 4.79171L3.24529 4.83313ZM14.7477 4.83313L15.4965 4.79171C15.4746 4.3942 15.1458 4.08313 14.7477 4.08313V4.83313ZM14.83 6.32142L15.5789 6.28V6.28L14.83 6.32142ZM3.16298 6.32142L2.41412 6.28L3.16298 6.32142ZM3.56291 14.8574L2.8212 14.9686L3.56291 14.8574ZM14.4301 14.8574L15.1718 14.9686L14.4301 14.8574ZM3.24529 5.58313H14.7477V4.08313H3.24529V5.58313ZM11.942 16.2501H6.05101V17.7501H11.942V16.2501ZM13.9988 4.87455L14.0811 6.36284L15.5789 6.28L15.4965 4.79171L13.9988 4.87455ZM3.91183 6.36284L3.99415 4.87455L2.49644 4.79171L2.41412 6.28L3.91183 6.36284ZM4.30461 14.7461C3.88854 11.9724 3.75693 9.16336 3.91183 6.36284L2.41412 6.28C2.25358 9.18253 2.38998 12.0938 2.8212 14.9686L4.30461 14.7461ZM14.0811 6.36284C14.236 9.16336 14.1044 11.9724 13.6884 14.7461L15.1718 14.9686C15.603 12.0938 15.7394 9.18252 15.5789 6.28L14.0811 6.36284ZM6.05101 16.2501C5.17688 16.2501 4.43428 15.6106 4.30461 14.7461L2.8212 14.9686C3.06102 16.5674 4.43438 17.7501 6.05101 17.7501V16.2501ZM11.942 17.7501C13.5586 17.7501 14.932 16.5674 15.1718 14.9686L13.6884 14.7461C13.5587 15.6106 12.8161 16.2501 11.942 16.2501V17.7501Z" fill="#505567"/>
<path d="M5.80078 4.83303V4.19401C5.80078 3.34662 6.13741 2.53393 6.73661 1.93473C7.33581 1.33553 8.14849 0.998901 8.99589 0.998901C9.84329 0.998901 10.656 1.33553 11.2552 1.93473C11.8544 2.53393 12.191 3.34662 12.191 4.19401V4.83303" stroke="#505567" stroke-width="1.5" stroke-linecap="round" stroke-linejoin="round"/>
<path d="M7.08203 8.25461V13.5515" stroke="#505567" stroke-width="1.5" stroke-linecap="round" stroke-linejoin="round"/>
<path d="M10.9141 8.25461V13.5515" stroke="#505567" stroke-width="1.5" stroke-linecap="round" stroke-linejoin="round"/>
</svg>
